<svg xmlns="http://www.w3.org/2000/svg" xmlns:xlink="http://www.w3.org/1999/xlink" width="1080" zoomAndPan="magnify" viewBox="0 0 810 809.999993" height="1080" preserveAspectRatio="xMidYMid meet" version="1.0"><path stroke-linecap="round" transform="matrix(0.75, -0.000260133, 0.000260133, 0.75, 225.019444, 61.386857)" fill="none" stroke-linejoin="miter" d="M 60.499972 60.499973 L 323.546878 60.49746 " stroke="#ff797e" stroke-width="121" stroke-opacity="1" stroke-miterlimit="4"/><path stroke-linecap="round" transform="matrix(0.75, -0.000825973, 0.000825973, 0.75, 0.00000347745, 61.536771)" fill="none" stroke-linejoin="miter" d="M 60.501113 60.502017 L 181.443903 60.499794 " stroke="#2b92e8" stroke-width="121" stroke-opacity="1" stroke-miterlimit="4"/><path stroke-linecap="round" transform="matrix(0.75, 0, 0, 0.75, 81.005318, 205.723896)" fill="none" stroke-linejoin="miter" d="M 60.498121 60.49835 L 471.857517 60.49835 " stroke="#fff165" stroke-width="121" stroke-opacity="1" stroke-miterlimit="4"/><path stroke-linecap="round" transform="matrix(0.75, -0.0000000353429, 0.0000000353429, 0.75, 525.723433, 205.723896)" fill="none" stroke-linejoin="miter" d="M 60.498964 60.498353 L 160.306261 60.498358 " stroke="#30ff99" stroke-width="121" stroke-opacity="1" stroke-miterlimit="4"/><path stroke-linecap="round" transform="matrix(0.75, -0.000000108647, 0.000000108647, 0.75, 127.055724, 350.033059)" fill="none" stroke-linejoin="miter" d="M 60.498613 60.4976 L 84.706947 60.497603 " stroke="#a467fe" stroke-width="121" stroke-opacity="1" stroke-miterlimit="4"/><path stroke-linecap="round" transform="matrix(0.75, -0.00000000250461, 0.00000000250461, 0.75, 271.653359, 349.833197)" fill="none" stroke-linejoin="miter" d="M 60.498649 60.498449 L 358.618455 60.49845 " stroke="#2b92e8" stroke-width="121" stroke-opacity="1" stroke-miterlimit="4"/><path stroke-linecap="round" transform="matrix(0.75, -0.000825973, 0.000825973, 0.75, 628.441916, 350.033059)" fill="none" stroke-linejoin="miter" d="M 60.500438 60.501757 L 181.443229 60.499534 " stroke="#fff165" stroke-width="121" stroke-opacity="1" stroke-miterlimit="4"/><path stroke-linecap="round" transform="matrix(0.75, -0.000260133, 0.000260133, 0.75, 62.831352, 494.042515)" fill="none" stroke-linejoin="miter" d="M 60.500761 60.500763 L 323.547667 60.498249 " stroke="#30ff99" stroke-width="121" stroke-opacity="1" stroke-miterlimit="4"/><path stroke-linecap="round" transform="matrix(0.75, -0.00011921, 0.00011921, 0.75, 404.999983, 493.967563)" fill="none" stroke-linejoin="miter" d="M 60.500826 60.500785 L 358.521674 60.50128 " stroke="#ff797e" stroke-width="121" stroke-opacity="1" stroke-miterlimit="4"/><path stroke-linecap="round" transform="matrix(0.75, 0.0000000392699, -0.0000000392699, 0.75, 235.960508, 638.25174)" fill="none" stroke-linejoin="miter" d="M 60.500578 60.49768 L 340.438092 60.497665 " stroke="#fff165" stroke-width="121" stroke-opacity="1" stroke-miterlimit="4"/><path stroke-linecap="round" transform="matrix(0.75, -0.000000000000000279, 0.000000000000000279, 0.75, 0.049973, 638.25174)" fill="none" stroke-linejoin="miter" d="M 60.501081 60.497683 L 213.240672 60.497683 " stroke="#a467fe" stroke-width="121" stroke-opacity="1" stroke-miterlimit="4"/></svg>